<svg id="Layer_1" data-name="Layer 1" xmlns="http://www.w3.org/2000/svg" viewBox="0 0 48 48"><defs><style>.cls-1{fill:#d50b0b;}</style></defs><path class="cls-1" d="M24,21.75a8.07,8.07,0,0,0,6-2.48,8.3,8.3,0,0,0,2.45-6.07V6.85H15.55V13.2A8.3,8.3,0,0,0,18,19.27,8.07,8.07,0,0,0,24,21.75ZM7.1,44.8V41.15h4.8v-6.4a12.35,12.35,0,0,1,1.7-6.35A11.09,11.09,0,0,1,18.3,24a11.39,11.39,0,0,1-4.7-4.45,12.35,12.35,0,0,1-1.7-6.35V6.85H7.1V3.2H40.9V6.85H36.1V13.2a12.35,12.35,0,0,1-1.7,6.35A11.39,11.39,0,0,1,29.7,24a11.09,11.09,0,0,1,4.7,4.4,12.35,12.35,0,0,1,1.7,6.35v6.4h4.8V44.8Z"/></svg>